<svg xmlns="http://www.w3.org/2000/svg" viewBox="0 0 100 100"><defs><style>@keyframes s5t7ac{0%,40%{transform:translate(1px,1px)}35%,5%{transform:translate(0,1px)}10%,25%,55%{transform:translate(1px,2px)}15%,50%{transform:translate(2px,1px)}20%,70%{transform:translate(3px,0)}30%{transform:translate(1px,3px)}45%,85%{transform:translate(1px,0)}60%{transform:translate(3px,1px)}65%,90%{transform:translate(0,2px)}75%{transform:translate(0,0)}80%{transform:translate(2px,3px)}95%{transform:translate(3px,2px)}}.s5t7ac{transform-origin:center;animation:s5t7ac 1s infinite}</style></defs><g fill="#b22234"><path d="M5 62.753h90v3.644H5z" class="s5t7ac" style="animation-delay:-.987s"/><path d="M5 48.178h90v3.644H5z" class="s5t7ac" style="animation-delay:-.974s"/><path d="M5 70.04h90v3.644H5z" class="s5t7ac" style="animation-delay:-.961s"/><path d="M5 55.466h90v3.644H5z" class="s5t7ac" style="animation-delay:-.947s"/><path d="M5 26.316h90v3.644H5z" class="s5t7ac" style="animation-delay:-.934s"/><path d="M5 40.891h90v3.644H5z" class="s5t7ac" style="animation-delay:-.921s"/><path d="M5 33.603h90v3.644H5z" class="s5t7ac" style="animation-delay:-.908s"/></g><g fill="#fff"><path d="M5 29.96v3.643h90V29.96z" class="s5t7ac" style="animation-delay:-.895s"/><path d="M5 39.069v1.822h90v-3.644H5z" class="s5t7ac" style="animation-delay:-.882s"/><path d="M5 46.356v1.822h90v-3.644H5z" class="s5t7ac" style="animation-delay:-.868s"/><path d="M5 68.219v1.821h90v-3.643H5z" class="s5t7ac" style="animation-delay:-.855s"/><path d="M5 60.931v1.822h90v-3.644H5z" class="s5t7ac" style="animation-delay:-.842s"/><path d="M5 53.644v1.822h90v-3.644H5z" class="s5t7ac" style="animation-delay:-.829s"/></g><path fill="#3c3b6e" d="M5 26.316h36v25.506H5z" class="s5t7ac" style="animation-delay:-.816s"/><g fill="#fff"><path d="M8 27.409l-.327 1.007H6.614l.857.622-.328 1.008.857-.623.857.623-.328-1.008.857-.622H8.327z" class="s5t7ac" style="animation-delay:-.803s"/><path d="M8 32.51l-.327 1.007H6.614l.857.623-.328 1.007.857-.623.857.623-.328-1.007.857-.623H8.327z" class="s5t7ac" style="animation-delay:-.789s"/><path d="M8 37.611l-.327 1.007H6.614l.857.623-.328 1.007.857-.622.857.622-.328-1.007.857-.623H8.327z" class="s5t7ac" style="animation-delay:-.776s"/><path d="M8 42.713l-.327 1.007H6.614l.857.622-.328 1.007.857-.622.857.622-.328-1.007.857-.622H8.327z" class="s5t7ac" style="animation-delay:-.763s"/><path d="M8.327 48.821L8 47.814l-.327 1.007H6.614l.857.622-.328 1.007.857-.622.857.622-.328-1.007.857-.622z" class="s5t7ac" style="animation-delay:-.75s"/><path d="M11 29.96l-.327 1.007H9.614l.857.622-.328 1.007.857-.622.857.622-.328-1.007.857-.622h-1.059z" class="s5t7ac" style="animation-delay:-.737s"/><path d="M11 35.061l-.327 1.007H9.614l.857.622-.328 1.007.857-.622.857.622-.328-1.007.857-.622h-1.059z" class="s5t7ac" style="animation-delay:-.724s"/><path d="M11 40.162l-.327 1.007H9.614l.857.622-.328 1.008.857-.623.857.623-.328-1.008.857-.622h-1.059z" class="s5t7ac" style="animation-delay:-.711s"/><path d="M11.327 46.27L11 45.263l-.327 1.007H9.614l.857.623-.328 1.007.857-.623.857.623-.328-1.007.857-.623z" class="s5t7ac" style="animation-delay:-.697s"/><path d="M14 27.409l-.327 1.007h-1.059l.857.622-.328 1.008.857-.623.857.623-.328-1.008.857-.622h-1.059z" class="s5t7ac" style="animation-delay:-.684s"/><path d="M14 32.51l-.327 1.007h-1.059l.857.623-.328 1.007.857-.623.857.623-.328-1.007.857-.623h-1.059z" class="s5t7ac" style="animation-delay:-.671s"/><path d="M14 37.611l-.327 1.007h-1.059l.857.623-.328 1.007.857-.622.857.622-.328-1.007.857-.623h-1.059z" class="s5t7ac" style="animation-delay:-.658s"/><path d="M14 42.713l-.327 1.007h-1.059l.857.622-.328 1.007.857-.622.857.622-.328-1.007.857-.622h-1.059z" class="s5t7ac" style="animation-delay:-.645s"/><path d="M14.327 48.821L14 47.814l-.327 1.007h-1.059l.857.622-.328 1.007.857-.622.857.622-.328-1.007.857-.622z" class="s5t7ac" style="animation-delay:-.632s"/><path d="M17 29.96l-.327 1.007h-1.059l.857.622-.328 1.007.857-.622.857.622-.328-1.007.857-.622h-1.059z" class="s5t7ac" style="animation-delay:-.618s"/><path d="M17 35.061l-.327 1.007h-1.059l.857.622-.328 1.007.857-.622.857.622-.328-1.007.857-.622h-1.059z" class="s5t7ac" style="animation-delay:-.605s"/><path d="M17 40.162l-.327 1.007h-1.059l.857.622-.328 1.008.857-.623.857.623-.328-1.008.857-.622h-1.059z" class="s5t7ac" style="animation-delay:-.592s"/><path d="M17.327 46.27L17 45.263l-.327 1.007h-1.059l.857.623-.328 1.007.857-.623.857.623-.328-1.007.857-.623z" class="s5t7ac" style="animation-delay:-.579s"/><path d="M20 27.409l-.327 1.007h-1.059l.857.622-.328 1.008.857-.623.857.623-.328-1.008.857-.622h-1.059z" class="s5t7ac" style="animation-delay:-.566s"/><path d="M20 32.51l-.327 1.007h-1.059l.857.623-.328 1.007.857-.623.857.623-.328-1.007.857-.623h-1.059z" class="s5t7ac" style="animation-delay:-.553s"/><path d="M20 37.611l-.327 1.007h-1.059l.857.623-.328 1.007.857-.622.857.622-.328-1.007.857-.623h-1.059z" class="s5t7ac" style="animation-delay:-.539s"/><path d="M20 42.713l-.327 1.007h-1.059l.857.622-.328 1.007.857-.622.857.622-.328-1.007.857-.622h-1.059z" class="s5t7ac" style="animation-delay:-.526s"/><path d="M20.327 48.821L20 47.814l-.327 1.007h-1.059l.857.622-.328 1.007.857-.622.857.622-.328-1.007.857-.622z" class="s5t7ac" style="animation-delay:-.513s"/><path d="M23 29.96l-.327 1.007h-1.059l.857.622-.328 1.007.857-.622.857.622-.328-1.007.857-.622h-1.059z" class="s5t7ac" style="animation-delay:-.5s"/><path d="M23 35.061l-.327 1.007h-1.059l.857.622-.328 1.007.857-.622.857.622-.328-1.007.857-.622h-1.059z" class="s5t7ac" style="animation-delay:-.487s"/><path d="M23 40.162l-.327 1.007h-1.059l.857.622-.328 1.008.857-.623.857.623-.328-1.008.857-.622h-1.059z" class="s5t7ac" style="animation-delay:-.474s"/><path d="M23.327 46.27L23 45.263l-.327 1.007h-1.059l.857.623-.328 1.007.857-.623.857.623-.328-1.007.857-.623z" class="s5t7ac" style="animation-delay:-.461s"/><path d="M26 27.409l-.327 1.007h-1.059l.857.622-.328 1.008.857-.623.857.623-.328-1.008.857-.622h-1.059z" class="s5t7ac" style="animation-delay:-.447s"/><path d="M26 32.51l-.327 1.007h-1.059l.857.623-.328 1.007.857-.623.857.623-.328-1.007.857-.623h-1.059z" class="s5t7ac" style="animation-delay:-.434s"/><path d="M26 37.611l-.327 1.007h-1.059l.857.623-.328 1.007.857-.622.857.622-.328-1.007.857-.623h-1.059z" class="s5t7ac" style="animation-delay:-.421s"/><path d="M26 42.713l-.327 1.007h-1.059l.857.622-.328 1.007.857-.622.857.622-.328-1.007.857-.622h-1.059z" class="s5t7ac" style="animation-delay:-.408s"/><path d="M26.327 48.821L26 47.814l-.327 1.007h-1.059l.857.622-.328 1.007.857-.622.857.622-.328-1.007.857-.622z" class="s5t7ac" style="animation-delay:-.395s"/><path d="M29 29.96l-.327 1.007h-1.059l.857.622-.328 1.007.857-.622.857.622-.328-1.007.857-.622h-1.059z" class="s5t7ac" style="animation-delay:-.382s"/><path d="M29 35.061l-.327 1.007h-1.059l.857.622-.328 1.007.857-.622.857.622-.328-1.007.857-.622h-1.059z" class="s5t7ac" style="animation-delay:-.368s"/><path d="M29 40.162l-.327 1.007h-1.059l.857.622-.328 1.008.857-.623.857.623-.328-1.008.857-.622h-1.059z" class="s5t7ac" style="animation-delay:-.355s"/><path d="M29.327 46.27L29 45.263l-.327 1.007h-1.059l.857.623-.328 1.007.857-.623.857.623-.328-1.007.857-.623z" class="s5t7ac" style="animation-delay:-.342s"/><path d="M32 27.409l-.327 1.007h-1.059l.857.622-.328 1.008.857-.623.857.623-.328-1.008.857-.622h-1.059z" class="s5t7ac" style="animation-delay:-.329s"/><path d="M32 32.51l-.327 1.007h-1.059l.857.623-.328 1.007.857-.623.857.623-.328-1.007.857-.623h-1.059z" class="s5t7ac" style="animation-delay:-.316s"/><path d="M32 37.611l-.327 1.007h-1.059l.857.623-.328 1.007.857-.622.857.622-.328-1.007.857-.623h-1.059z" class="s5t7ac" style="animation-delay:-.303s"/><path d="M32 42.713l-.327 1.007h-1.059l.857.622-.328 1.007.857-.622.857.622-.328-1.007.857-.622h-1.059z" class="s5t7ac" style="animation-delay:-.289s"/><path d="M32.327 48.821L32 47.814l-.327 1.007h-1.059l.857.622-.328 1.007.857-.622.857.622-.328-1.007.857-.622z" class="s5t7ac" style="animation-delay:-.276s"/><path d="M35 29.96l-.327 1.007h-1.059l.857.622-.328 1.007.857-.622.857.622-.328-1.007.857-.622h-1.059z" class="s5t7ac" style="animation-delay:-.263s"/><path d="M35 35.061l-.327 1.007h-1.059l.857.622-.328 1.007.857-.622.857.622-.328-1.007.857-.622h-1.059z" class="s5t7ac" style="animation-delay:-.25s"/><path d="M35 40.162l-.327 1.007h-1.059l.857.622-.328 1.008.857-.623.857.623-.328-1.008.857-.622h-1.059z" class="s5t7ac" style="animation-delay:-.237s"/><path d="M35.327 46.27L35 45.263l-.327 1.007h-1.059l.857.623-.328 1.007.857-.623.857.623-.328-1.007.857-.623z" class="s5t7ac" style="animation-delay:-.224s"/><path d="M37.471 29.038l-.328 1.008.857-.623.857.623-.328-1.008.857-.622h-1.059L38 27.409l-.327 1.007h-1.059z" class="s5t7ac" style="animation-delay:-.211s"/><path d="M38 32.51l-.327 1.007h-1.059l.857.623-.328 1.007.857-.623.857.623-.328-1.007.857-.623h-1.059z" class="s5t7ac" style="animation-delay:-.197s"/><path d="M38 37.611l-.327 1.007h-1.059l.857.623-.328 1.007.857-.622.857.622-.328-1.007.857-.623h-1.059z" class="s5t7ac" style="animation-delay:-.184s"/><path d="M38 42.713l-.327 1.007h-1.059l.857.622-.328 1.007.857-.622.857.622-.328-1.007.857-.622h-1.059z" class="s5t7ac" style="animation-delay:-.171s"/><path d="M38.327 48.821L38 47.814l-.327 1.007h-1.059l.857.622-.328 1.007.857-.622.857.622-.328-1.007.857-.622z" class="s5t7ac" style="animation-delay:-.158s"/></g></svg>