<svg class="ldi-esydb9" width="128" height="128" xmlns="http://www.w3.org/2000/svg" viewBox="0 0 100 100" preserveAspectRatio="xMidYMid" style="background:0 0"><g style="transform-origin:50px 50px 0;animation-duration:1s;animation-delay:-1s;animation-direction:normal"><style>.st9{fill:#fff}.st100{fill:#b22335}</style><g class="ld ld-tremble-px" style="transform-origin:50px 50px 0;animation-duration:1s;animation-delay:-.986842s;animation-direction:normal"><path class="st100" fill="#b22335" d="M5 62.753h90v3.644H5z"/></g><g class="ld ld-tremble-px" style="transform-origin:50px 50px 0;animation-duration:1s;animation-delay:-.973684s;animation-direction:normal"><path class="st100" fill="#b22335" d="M5 48.178h90v3.644H5z"/></g><g class="ld ld-tremble-px" style="transform-origin:50px 50px 0;animation-duration:1s;animation-delay:-.960526s;animation-direction:normal"><path class="st100" fill="#b22335" d="M5 70.04h90v3.644H5z"/></g><g class="ld ld-tremble-px" style="transform-origin:50px 50px 0;animation-duration:1s;animation-delay:-.947368s;animation-direction:normal"><path class="st100" fill="#b22335" d="M5 55.466h90v3.644H5z"/></g><g class="ld ld-tremble-px" style="transform-origin:50px 50px 0;animation-duration:1s;animation-delay:-.934211s;animation-direction:normal"><path class="st100" fill="#b22335" d="M5 26.316h90v3.644H5z"/></g><g class="ld ld-tremble-px" style="transform-origin:50px 50px 0;animation-duration:1s;animation-delay:-.921053s;animation-direction:normal"><path class="st100" fill="#b22335" d="M5 40.891h90v3.644H5z"/></g><g class="ld ld-tremble-px" style="transform-origin:50px 50px 0;animation-duration:1s;animation-delay:-.907895s;animation-direction:normal"><path class="st100" fill="#b22335" d="M5 33.603h90v3.644H5z"/></g><g style="transform-origin:50px 50px 0"><g class="ld ld-tremble-px" style="transform-origin:50px 50px 0;animation-duration:1s;animation-delay:-.894737s;animation-direction:normal"><path class="st9" fill="#fff" d="M5 29.96v3.643h90V29.96z"/></g><g class="ld ld-tremble-px" style="transform-origin:50px 50px 0;animation-duration:1s;animation-delay:-.881579s;animation-direction:normal"><path class="st9" fill="#fff" d="M5 39.069v1.822h90v-3.644H5z"/></g><g class="ld ld-tremble-px" style="transform-origin:50px 50px 0;animation-duration:1s;animation-delay:-.868421s;animation-direction:normal"><path class="st9" fill="#fff" d="M5 46.356v1.822h90v-3.644H5z"/></g><g class="ld ld-tremble-px" style="transform-origin:50px 50px 0;animation-duration:1s;animation-delay:-.855263s;animation-direction:normal"><path class="st9" fill="#fff" d="M5 68.219v1.821h90v-3.643H5z"/></g><g class="ld ld-tremble-px" style="transform-origin:50px 50px 0;animation-duration:1s;animation-delay:-.842105s;animation-direction:normal"><path class="st9" fill="#fff" d="M5 60.931v1.822h90v-3.644H5z"/></g><g class="ld ld-tremble-px" style="transform-origin:50px 50px 0;animation-duration:1s;animation-delay:-.828947s;animation-direction:normal"><path class="st9" fill="#fff" d="M5 53.644v1.822h90v-3.644H5z"/></g></g><path fill="#3d3b6e" d="M5 26.316h36v25.506H5z"/><g style="transform-origin:50px 50px 0"><g class="ld ld-tremble-px" style="transform-origin:50px 50px 0;animation-duration:1s;animation-delay:-.802632s;animation-direction:normal"><path class="st9" fill="#fff" d="M8 27.409l-.327 1.007H6.614l.857.622-.328 1.008.857-.623.857.623-.328-1.008.857-.622H8.327z"/></g><g class="ld ld-tremble-px" style="transform-origin:50px 50px 0;animation-duration:1s;animation-delay:-.789474s;animation-direction:normal"><path class="st9" fill="#fff" d="M8 32.51l-.327 1.007H6.614l.857.623-.328 1.007.857-.623.857.623-.328-1.007.857-.623H8.327z"/></g><g class="ld ld-tremble-px" style="transform-origin:50px 50px 0;animation-duration:1s;animation-delay:-.776316s;animation-direction:normal"><path class="st9" fill="#fff" d="M8 37.611l-.327 1.007H6.614l.857.623-.328 1.007.857-.622.857.622-.328-1.007.857-.623H8.327z"/></g><g class="ld ld-tremble-px" style="transform-origin:50px 50px 0;animation-duration:1s;animation-delay:-.763158s;animation-direction:normal"><path class="st9" fill="#fff" d="M8 42.713l-.327 1.007H6.614l.857.622-.328 1.007.857-.622.857.622-.328-1.007.857-.622H8.327z"/></g><g class="ld ld-tremble-px" style="transform-origin:50px 50px 0;animation-duration:1s;animation-delay:-.75s;animation-direction:normal"><path class="st9" fill="#fff" d="M8.327 48.821L8 47.814l-.327 1.007H6.614l.857.622-.328 1.007.857-.622.857.622-.328-1.007.857-.622z"/></g><g class="ld ld-tremble-px" style="transform-origin:50px 50px 0;animation-duration:1s;animation-delay:-.736842s;animation-direction:normal"><path class="st9" fill="#fff" d="M11 29.96l-.327 1.007H9.614l.857.622-.328 1.007.857-.622.857.622-.328-1.007.857-.622h-1.059z"/></g><g class="ld ld-tremble-px" style="transform-origin:50px 50px 0;animation-duration:1s;animation-delay:-.723684s;animation-direction:normal"><path class="st9" fill="#fff" d="M11 35.061l-.327 1.007H9.614l.857.622-.328 1.007.857-.622.857.622-.328-1.007.857-.622h-1.059z"/></g><g class="ld ld-tremble-px" style="transform-origin:50px 50px 0;animation-duration:1s;animation-delay:-.710526s;animation-direction:normal"><path class="st9" fill="#fff" d="M11 40.162l-.327 1.007H9.614l.857.622-.328 1.008.857-.623.857.623-.328-1.008.857-.622h-1.059z"/></g><g class="ld ld-tremble-px" style="transform-origin:50px 50px 0;animation-duration:1s;animation-delay:-.697368s;animation-direction:normal"><path class="st9" fill="#fff" d="M11.327 46.27L11 45.263l-.327 1.007H9.614l.857.623-.328 1.007.857-.623.857.623-.328-1.007.857-.623z"/></g><g class="ld ld-tremble-px" style="transform-origin:50px 50px 0;animation-duration:1s;animation-delay:-.684211s;animation-direction:normal"><path class="st9" fill="#fff" d="M14 27.409l-.327 1.007h-1.059l.857.622-.328 1.008.857-.623.857.623-.328-1.008.857-.622h-1.059z"/></g><g class="ld ld-tremble-px" style="transform-origin:50px 50px 0;animation-duration:1s;animation-delay:-.671053s;animation-direction:normal"><path class="st9" fill="#fff" d="M14 32.51l-.327 1.007h-1.059l.857.623-.328 1.007.857-.623.857.623-.328-1.007.857-.623h-1.059z"/></g><g class="ld ld-tremble-px" style="transform-origin:50px 50px 0;animation-duration:1s;animation-delay:-.657895s;animation-direction:normal"><path class="st9" fill="#fff" d="M14 37.611l-.327 1.007h-1.059l.857.623-.328 1.007.857-.622.857.622-.328-1.007.857-.623h-1.059z"/></g><g class="ld ld-tremble-px" style="transform-origin:50px 50px 0;animation-duration:1s;animation-delay:-.644737s;animation-direction:normal"><path class="st9" fill="#fff" d="M14 42.713l-.327 1.007h-1.059l.857.622-.328 1.007.857-.622.857.622-.328-1.007.857-.622h-1.059z"/></g><g class="ld ld-tremble-px" style="transform-origin:50px 50px 0;animation-duration:1s;animation-delay:-.631579s;animation-direction:normal"><path class="st9" fill="#fff" d="M14.327 48.821L14 47.814l-.327 1.007h-1.059l.857.622-.328 1.007.857-.622.857.622-.328-1.007.857-.622z"/></g><g class="ld ld-tremble-px" style="transform-origin:50px 50px 0;animation-duration:1s;animation-delay:-.618421s;animation-direction:normal"><path class="st9" fill="#fff" d="M17 29.96l-.327 1.007h-1.059l.857.622-.328 1.007.857-.622.857.622-.328-1.007.857-.622h-1.059z"/></g><g class="ld ld-tremble-px" style="transform-origin:50px 50px 0;animation-duration:1s;animation-delay:-.605263s;animation-direction:normal"><path class="st9" fill="#fff" d="M17 35.061l-.327 1.007h-1.059l.857.622-.328 1.007.857-.622.857.622-.328-1.007.857-.622h-1.059z"/></g><g class="ld ld-tremble-px" style="transform-origin:50px 50px 0;animation-duration:1s;animation-delay:-.592105s;animation-direction:normal"><path class="st9" fill="#fff" d="M17 40.162l-.327 1.007h-1.059l.857.622-.328 1.008.857-.623.857.623-.328-1.008.857-.622h-1.059z"/></g><g class="ld ld-tremble-px" style="transform-origin:50px 50px 0;animation-duration:1s;animation-delay:-.578947s;animation-direction:normal"><path class="st9" fill="#fff" d="M17.327 46.27L17 45.263l-.327 1.007h-1.059l.857.623-.328 1.007.857-.623.857.623-.328-1.007.857-.623z"/></g><g class="ld ld-tremble-px" style="transform-origin:50px 50px 0;animation-duration:1s;animation-delay:-.565789s;animation-direction:normal"><path class="st9" fill="#fff" d="M20 27.409l-.327 1.007h-1.059l.857.622-.328 1.008.857-.623.857.623-.328-1.008.857-.622h-1.059z"/></g><g class="ld ld-tremble-px" style="transform-origin:50px 50px 0;animation-duration:1s;animation-delay:-.552632s;animation-direction:normal"><path class="st9" fill="#fff" d="M20 32.51l-.327 1.007h-1.059l.857.623-.328 1.007.857-.623.857.623-.328-1.007.857-.623h-1.059z"/></g><g class="ld ld-tremble-px" style="transform-origin:50px 50px 0;animation-duration:1s;animation-delay:-.539474s;animation-direction:normal"><path class="st9" fill="#fff" d="M20 37.611l-.327 1.007h-1.059l.857.623-.328 1.007.857-.622.857.622-.328-1.007.857-.623h-1.059z"/></g><g class="ld ld-tremble-px" style="transform-origin:50px 50px 0;animation-duration:1s;animation-delay:-.526316s;animation-direction:normal"><path class="st9" fill="#fff" d="M20 42.713l-.327 1.007h-1.059l.857.622-.328 1.007.857-.622.857.622-.328-1.007.857-.622h-1.059z"/></g><g class="ld ld-tremble-px" style="transform-origin:50px 50px 0;animation-duration:1s;animation-delay:-.513158s;animation-direction:normal"><path class="st9" fill="#fff" d="M20.327 48.821L20 47.814l-.327 1.007h-1.059l.857.622-.328 1.007.857-.622.857.622-.328-1.007.857-.622z"/></g><g class="ld ld-tremble-px" style="transform-origin:50px 50px 0;animation-duration:1s;animation-delay:-.5s;animation-direction:normal"><path class="st9" fill="#fff" d="M23 29.96l-.327 1.007h-1.059l.857.622-.328 1.007.857-.622.857.622-.328-1.007.857-.622h-1.059z"/></g><g class="ld ld-tremble-px" style="transform-origin:50px 50px 0;animation-duration:1s;animation-delay:-.486842s;animation-direction:normal"><path class="st9" fill="#fff" d="M23 35.061l-.327 1.007h-1.059l.857.622-.328 1.007.857-.622.857.622-.328-1.007.857-.622h-1.059z"/></g><g class="ld ld-tremble-px" style="transform-origin:50px 50px 0;animation-duration:1s;animation-delay:-.473684s;animation-direction:normal"><path class="st9" fill="#fff" d="M23 40.162l-.327 1.007h-1.059l.857.622-.328 1.008.857-.623.857.623-.328-1.008.857-.622h-1.059z"/></g><g class="ld ld-tremble-px" style="transform-origin:50px 50px 0;animation-duration:1s;animation-delay:-.460526s;animation-direction:normal"><path class="st9" fill="#fff" d="M23.327 46.27L23 45.263l-.327 1.007h-1.059l.857.623-.328 1.007.857-.623.857.623-.328-1.007.857-.623z"/></g><g class="ld ld-tremble-px" style="transform-origin:50px 50px 0;animation-duration:1s;animation-delay:-.447368s;animation-direction:normal"><path class="st9" fill="#fff" d="M26 27.409l-.327 1.007h-1.059l.857.622-.328 1.008.857-.623.857.623-.328-1.008.857-.622h-1.059z"/></g><g class="ld ld-tremble-px" style="transform-origin:50px 50px 0;animation-duration:1s;animation-delay:-.434211s;animation-direction:normal"><path class="st9" fill="#fff" d="M26 32.51l-.327 1.007h-1.059l.857.623-.328 1.007.857-.623.857.623-.328-1.007.857-.623h-1.059z"/></g><g class="ld ld-tremble-px" style="transform-origin:50px 50px 0;animation-duration:1s;animation-delay:-.421053s;animation-direction:normal"><path class="st9" fill="#fff" d="M26 37.611l-.327 1.007h-1.059l.857.623-.328 1.007.857-.622.857.622-.328-1.007.857-.623h-1.059z"/></g><g class="ld ld-tremble-px" style="transform-origin:50px 50px 0;animation-duration:1s;animation-delay:-.407895s;animation-direction:normal"><path class="st9" fill="#fff" d="M26 42.713l-.327 1.007h-1.059l.857.622-.328 1.007.857-.622.857.622-.328-1.007.857-.622h-1.059z"/></g><g class="ld ld-tremble-px" style="transform-origin:50px 50px 0;animation-duration:1s;animation-delay:-.394737s;animation-direction:normal"><path class="st9" fill="#fff" d="M26.327 48.821L26 47.814l-.327 1.007h-1.059l.857.622-.328 1.007.857-.622.857.622-.328-1.007.857-.622z"/></g><g class="ld ld-tremble-px" style="transform-origin:50px 50px 0;animation-duration:1s;animation-delay:-.381579s;animation-direction:normal"><path class="st9" fill="#fff" d="M29 29.96l-.327 1.007h-1.059l.857.622-.328 1.007.857-.622.857.622-.328-1.007.857-.622h-1.059z"/></g><g class="ld ld-tremble-px" style="transform-origin:50px 50px 0;animation-duration:1s;animation-delay:-.368421s;animation-direction:normal"><path class="st9" fill="#fff" d="M29 35.061l-.327 1.007h-1.059l.857.622-.328 1.007.857-.622.857.622-.328-1.007.857-.622h-1.059z"/></g><g class="ld ld-tremble-px" style="transform-origin:50px 50px 0;animation-duration:1s;animation-delay:-.355263s;animation-direction:normal"><path class="st9" fill="#fff" d="M29 40.162l-.327 1.007h-1.059l.857.622-.328 1.008.857-.623.857.623-.328-1.008.857-.622h-1.059z"/></g><g class="ld ld-tremble-px" style="transform-origin:50px 50px 0;animation-duration:1s;animation-delay:-.342105s;animation-direction:normal"><path class="st9" fill="#fff" d="M29.327 46.27L29 45.263l-.327 1.007h-1.059l.857.623-.328 1.007.857-.623.857.623-.328-1.007.857-.623z"/></g><g class="ld ld-tremble-px" style="transform-origin:50px 50px 0;animation-duration:1s;animation-delay:-.328947s;animation-direction:normal"><path class="st9" fill="#fff" d="M32 27.409l-.327 1.007h-1.059l.857.622-.328 1.008.857-.623.857.623-.328-1.008.857-.622h-1.059z"/></g><g class="ld ld-tremble-px" style="transform-origin:50px 50px 0;animation-duration:1s;animation-delay:-.315789s;animation-direction:normal"><path class="st9" fill="#fff" d="M32 32.51l-.327 1.007h-1.059l.857.623-.328 1.007.857-.623.857.623-.328-1.007.857-.623h-1.059z"/></g><g class="ld ld-tremble-px" style="transform-origin:50px 50px 0;animation-duration:1s;animation-delay:-.302632s;animation-direction:normal"><path class="st9" fill="#fff" d="M32 37.611l-.327 1.007h-1.059l.857.623-.328 1.007.857-.622.857.622-.328-1.007.857-.623h-1.059z"/></g><g class="ld ld-tremble-px" style="transform-origin:50px 50px 0;animation-duration:1s;animation-delay:-.289474s;animation-direction:normal"><path class="st9" fill="#fff" d="M32 42.713l-.327 1.007h-1.059l.857.622-.328 1.007.857-.622.857.622-.328-1.007.857-.622h-1.059z"/></g><g class="ld ld-tremble-px" style="transform-origin:50px 50px 0;animation-duration:1s;animation-delay:-.276316s;animation-direction:normal"><path class="st9" fill="#fff" d="M32.327 48.821L32 47.814l-.327 1.007h-1.059l.857.622-.328 1.007.857-.622.857.622-.328-1.007.857-.622z"/></g><g class="ld ld-tremble-px" style="transform-origin:50px 50px 0;animation-duration:1s;animation-delay:-.263158s;animation-direction:normal"><path class="st9" fill="#fff" d="M35 29.96l-.327 1.007h-1.059l.857.622-.328 1.007.857-.622.857.622-.328-1.007.857-.622h-1.059z"/></g><g class="ld ld-tremble-px" style="transform-origin:50px 50px 0;animation-duration:1s;animation-delay:-.25s;animation-direction:normal"><path class="st9" fill="#fff" d="M35 35.061l-.327 1.007h-1.059l.857.622-.328 1.007.857-.622.857.622-.328-1.007.857-.622h-1.059z"/></g><g class="ld ld-tremble-px" style="transform-origin:50px 50px 0;animation-duration:1s;animation-delay:-.236842s;animation-direction:normal"><path class="st9" fill="#fff" d="M35 40.162l-.327 1.007h-1.059l.857.622-.328 1.008.857-.623.857.623-.328-1.008.857-.622h-1.059z"/></g><g class="ld ld-tremble-px" style="transform-origin:50px 50px 0;animation-duration:1s;animation-delay:-.223684s;animation-direction:normal"><path class="st9" fill="#fff" d="M35.327 46.27L35 45.263l-.327 1.007h-1.059l.857.623-.328 1.007.857-.623.857.623-.328-1.007.857-.623z"/></g><g class="ld ld-tremble-px" style="transform-origin:50px 50px 0;animation-duration:1s;animation-delay:-.210526s;animation-direction:normal"><path class="st9" fill="#fff" d="M37.471 29.038l-.328 1.008.857-.623.857.623-.328-1.008.857-.622h-1.059L38 27.409l-.327 1.007h-1.059z"/></g><g class="ld ld-tremble-px" style="transform-origin:50px 50px 0;animation-duration:1s;animation-delay:-.197368s;animation-direction:normal"><path class="st9" fill="#fff" d="M38 32.51l-.327 1.007h-1.059l.857.623-.328 1.007.857-.623.857.623-.328-1.007.857-.623h-1.059z"/></g><g class="ld ld-tremble-px" style="transform-origin:50px 50px 0;animation-duration:1s;animation-delay:-.184211s;animation-direction:normal"><path class="st9" fill="#fff" d="M38 37.611l-.327 1.007h-1.059l.857.623-.328 1.007.857-.622.857.622-.328-1.007.857-.623h-1.059z"/></g><g class="ld ld-tremble-px" style="transform-origin:50px 50px 0;animation-duration:1s;animation-delay:-.171053s;animation-direction:normal"><path class="st9" fill="#fff" d="M38 42.713l-.327 1.007h-1.059l.857.622-.328 1.007.857-.622.857.622-.328-1.007.857-.622h-1.059z"/></g><g class="ld ld-tremble-px" style="transform-origin:50px 50px 0;animation-duration:1s;animation-delay:-.157895s;animation-direction:normal"><path class="st9" fill="#fff" d="M38.327 48.821L38 47.814l-.327 1.007h-1.059l.857.622-.328 1.007.857-.622.857.622-.328-1.007.857-.622z"/></g></g></g><style>@keyframes ld-tremble-px{0%,40%{-webkit-transform:translate(1px,1px);transform:translate(1px,1px)}35%,5%{-webkit-transform:translate(0,1px);transform:translate(0,1px)}10%,25%,55%{-webkit-transform:translate(1px,2px);transform:translate(1px,2px)}15%,50%{-webkit-transform:translate(2px,1px);transform:translate(2px,1px)}20%,70%{-webkit-transform:translate(3px,0);transform:translate(3px,0)}30%{-webkit-transform:translate(1px,3px);transform:translate(1px,3px)}45%,85%{-webkit-transform:translate(1px,0);transform:translate(1px,0)}60%{-webkit-transform:translate(3px,1px);transform:translate(3px,1px)}65%,90%{-webkit-transform:translate(0,2px);transform:translate(0,2px)}75%{-webkit-transform:translate(0,0);transform:translate(0,0)}80%{-webkit-transform:translate(2px,3px);transform:translate(2px,3px)}95%{-webkit-transform:translate(3px,2px);transform:translate(3px,2px)}}@-webkit-keyframes ld-tremble-px{0%,40%{-webkit-transform:translate(1px,1px);transform:translate(1px,1px)}35%,5%{-webkit-transform:translate(0,1px);transform:translate(0,1px)}10%,25%,55%{-webkit-transform:translate(1px,2px);transform:translate(1px,2px)}15%,50%{-webkit-transform:translate(2px,1px);transform:translate(2px,1px)}20%,70%{-webkit-transform:translate(3px,0);transform:translate(3px,0)}30%{-webkit-transform:translate(1px,3px);transform:translate(1px,3px)}45%,85%{-webkit-transform:translate(1px,0);transform:translate(1px,0)}60%{-webkit-transform:translate(3px,1px);transform:translate(3px,1px)}65%,90%{-webkit-transform:translate(0,2px);transform:translate(0,2px)}75%{-webkit-transform:translate(0,0);transform:translate(0,0)}80%{-webkit-transform:translate(2px,3px);transform:translate(2px,3px)}95%{-webkit-transform:translate(3px,2px);transform:translate(3px,2px)}}.ld.ld-tremble-px{-webkit-animation:ld-tremble-px 1s infinite;animation:ld-tremble-px 1s infinite}</style></svg>