<svg class="ldi-8kxaq5" width="128" height="128" xmlns="http://www.w3.org/2000/svg" viewBox="0 0 100 100" preserveAspectRatio="xMidYMid" style="background:0 0"><path fill="#de2910" d="M5 20h90v60H5z"/><g style="transform-origin:50px 50px 0;animation-duration:1s;animation-delay:-.875s;animation-direction:normal" class="ld ld-heartbeat"><path class="st209" fill="#ffde00" d="M22.021 32.219L20 26l-2.021 6.219H11.44l5.291 3.843-2.021 6.219L20 38.438l5.29 3.843-2.021-6.219 5.291-3.843z"/></g><g style="transform-origin:50px 50px 0;animation-duration:1s;animation-delay:-.8125s;animation-direction:normal" class="ld ld-heartbeat"><path class="st209" fill="#ffde00" d="M34.552 27.055l1.121 1.869.191-2.172 2.124-.489-2.005-.853.191-2.171-1.431 1.644-2.006-.853 1.122 1.869-1.431 1.644z"/></g><g style="transform-origin:50px 50px 0;animation-duration:1s;animation-delay:-.75s;animation-direction:normal" class="ld ld-heartbeat"><path class="st209" fill="#ffde00" d="M40.178 32.798l.308 2.158 1.019-1.927 2.147.373-1.518-1.564 1.019-1.927-1.957.96-1.517-1.564.308 2.157-1.957.96z"/></g><g style="transform-origin:50px 50px 0;animation-duration:1s;animation-delay:-.6875s;animation-direction:normal" class="ld ld-heartbeat"><path class="st209" fill="#ffde00" d="M42.102 41.315l1.716-1.344-2.178.078-.748-2.047-.598 2.096-2.179.078 1.809 1.217-.599 2.096 1.716-1.344 1.808 1.217z"/></g><g style="transform-origin:50px 50px 0;animation-duration:1s;animation-delay:-.625s;animation-direction:normal" class="ld ld-heartbeat"><path class="st209" fill="#ffde00" d="M35.957 46.37l.101-2.177-1.361 1.702-2.04-.769 1.198 1.821-1.361 1.702 2.102-.577 1.198 1.821.101-2.177 2.102-.577z"/></g><style>@keyframes ld-heartbeat{0%,60%{-webkit-transform:scale(1.05);transform:scale(1.05)}5%{-webkit-transform:scale(1.25);transform:scale(1.25)}39%{-webkit-transform:scale(.9);transform:scale(.9)}45%{-webkit-transform:scale(1.15);transform:scale(1.15)}}@-webkit-keyframes ld-heartbeat{0%,60%{-webkit-transform:scale(1.05);transform:scale(1.05)}5%{-webkit-transform:scale(1.25);transform:scale(1.25)}39%{-webkit-transform:scale(.9);transform:scale(.9)}45%{-webkit-transform:scale(1.15);transform:scale(1.15)}}.ld.ld-heartbeat{-webkit-animation:ld-heartbeat .8s infinite cubic-bezier(.215,.61,.355,1);animation:ld-heartbeat .8s infinite cubic-bezier(.215,.61,.355,1)}</style></svg>